<svg width="128" height="128" viewBox="0 0 128 128" fill="none" xmlns="http://www.w3.org/2000/svg">
<g clip-path="url(#clip0_13_95)">
<g clip-path="url(#clip1_13_95)">
<rect width="128" height="128" fill="white"/>
<path fill-rule="evenodd" clip-rule="evenodd" d="M0 0H128V128H0V0ZM92.3068 48.5416L92.3068 41.9684C89.0952 41.2708 86.6059 38.6369 86.1226 35.3505L77.933 35.3633L73.8212 39.4751L88.0894 53.7434L92.3068 49.526L92.3068 48.5416ZM75.776 33.0125L71.5664 37.2221C67.4085 33.189 60.7683 33.2277 56.658 37.338L56.5558 37.4402L52.4758 33.3602L52.4625 24.8257L52.2039 24.8261C55.9693 24.191 58.8375 20.9148 58.8375 16.9688C58.8375 12.5677 55.2698 9.00002 50.8688 9.00002C46.4677 9.00002 42.9 12.5677 42.9 16.9688C42.9 20.9234 45.7808 24.2053 49.5583 24.8303L49.275 24.8307L49.2866 32.2682H42.7613C42.0643 28.5784 38.8237 25.7875 34.9312 25.7875C30.5302 25.7875 26.9625 29.3552 26.9625 33.7563C26.9625 37.4599 29.4891 40.5734 32.9128 41.4672L32.9241 48.7375H25.5281C24.7898 45.1002 21.574 42.3625 17.7188 42.3625C13.3177 42.3625 9.75 45.9302 9.75 50.3313C9.75 54.7323 13.3177 58.3 17.7188 58.3C21.574 58.3 24.7898 55.5623 25.5281 51.925H33.824L33.7625 51.9865L37.886 56.11L37.8755 56.1205C33.7262 60.2698 33.7262 66.9972 37.8755 71.1465L38.2754 71.5465L34.1102 75.7117L25.5757 75.725L25.5761 75.9836C24.9409 72.2182 21.6648 69.35 17.7188 69.35C13.3177 69.35 9.75001 72.9177 9.75001 77.3188C9.75001 81.7198 13.3177 85.2875 17.7188 85.2875C21.6734 85.2875 24.9553 82.4067 25.5803 78.6292L25.5807 78.9125L33.0182 78.9009V85.4262C29.3284 86.1231 26.5375 89.3638 26.5375 93.2563C26.5375 97.6573 30.1052 101.225 34.5062 101.225C38.2099 101.225 41.3234 98.6984 42.2171 95.2747L49.4875 95.2634V102.659C45.8502 103.398 43.1125 106.614 43.1125 110.469C43.1125 114.87 46.6802 118.438 51.0812 118.438C55.4823 118.438 59.05 114.87 59.05 110.469C59.05 106.614 56.3123 103.398 52.675 102.659V94.3635L52.7365 94.425L56.9506 90.2109C61.1178 94.0762 67.6309 93.9822 71.684 89.9291L71.7862 89.8269L76.0367 94.0773L76.05 102.612L76.3085 102.611C72.5432 103.247 69.675 106.523 69.675 110.469C69.675 114.87 73.2427 118.437 77.6437 118.437C82.0447 118.437 85.6125 114.87 85.6125 110.469C85.6125 106.514 82.7317 103.232 78.9542 102.607L79.2375 102.607L79.2259 95.1693H85.7512C86.4481 98.8591 89.6888 101.65 93.5812 101.65C97.9822 101.65 101.55 98.0823 101.55 93.6812C101.55 89.9776 99.0233 86.8641 95.5997 85.9704L95.5884 78.7H102.984C103.723 82.3373 106.939 85.075 110.794 85.075C115.195 85.075 118.762 81.5073 118.762 77.1063C118.762 72.7052 115.195 69.1375 110.794 69.1375C106.939 69.1375 103.723 71.8752 102.984 75.5125L95.5834 75.5125L94.6885 75.5125L94.75 75.451L90.456 71.1571L90.4666 71.1465C94.6159 66.9972 94.6159 60.2698 90.4666 56.1205L90.3433 55.9973L94.6151 51.7255L102.937 51.7125L102.936 51.4539C103.572 55.2193 106.848 58.0875 110.794 58.0875C115.195 58.0875 118.762 54.5198 118.762 50.1188C118.762 45.7177 115.195 42.15 110.794 42.15C106.839 42.15 103.557 45.0308 102.932 48.8083L102.932 48.525L95.4943 48.5366V42.0113C99.1841 41.3144 101.975 38.0737 101.975 34.1813C101.975 29.7802 98.4072 26.2125 94.0062 26.2125C90.3026 26.2125 87.1891 28.7391 86.2953 32.1628L79.025 32.1741V24.7781C82.6623 24.0398 85.4 20.824 85.4 16.9688C85.4 12.5677 81.8323 9 77.4312 9C73.0302 9 69.4625 12.5677 69.4625 16.9688C69.4625 20.824 72.2002 24.0397 75.8375 24.7781V33.074L75.776 33.0125ZM40.1399 53.8561L54.3019 39.6941L50.125 35.5172L50.1865 35.4557H42.7184C42.0208 38.6673 39.3869 41.1566 36.1005 41.6398L36.1133 49.8295L40.1399 53.8561ZM36.2672 78.0625L40.5293 73.8004L54.6913 87.9624L50.5795 92.0742L42.3898 92.087C41.9066 88.8006 39.4173 86.1667 36.2057 85.4691V78.001L36.2672 78.0625ZM78.3875 91.9203L74.0401 87.573L88.2021 73.411L92.3992 77.608L92.4119 85.7977C89.1256 86.2809 86.4917 88.7702 85.7941 91.9818H78.326L78.3875 91.9203ZM94.0062 38.9625C96.6468 38.9625 98.7875 36.8219 98.7875 34.1813C98.7875 31.5406 96.6468 29.4 94.0062 29.4C91.3656 29.4 89.225 31.5406 89.225 34.1813C89.225 36.8219 91.3656 38.9625 94.0062 38.9625ZM115.575 50.1188C115.575 52.7594 113.434 54.9 110.794 54.9C108.153 54.9 106.012 52.7594 106.012 50.1188C106.012 47.4781 108.153 45.3375 110.794 45.3375C113.434 45.3375 115.575 47.4781 115.575 50.1188ZM77.4312 21.75C80.0719 21.75 82.2125 19.6094 82.2125 16.9688C82.2125 14.3281 80.0719 12.1875 77.4312 12.1875C74.7906 12.1875 72.65 14.3281 72.65 16.9688C72.65 19.6094 74.7906 21.75 77.4312 21.75ZM34.9312 28.975C37.5719 28.975 39.7125 31.1157 39.7125 33.7563C39.7125 36.3969 37.5719 38.5375 34.9312 38.5375C32.2906 38.5375 30.15 36.3969 30.15 33.7563C30.15 31.1157 32.2906 28.975 34.9312 28.975ZM55.65 16.9688C55.65 14.3282 53.5094 12.1875 50.8688 12.1875C48.2281 12.1875 46.0875 14.3282 46.0875 16.9688C46.0875 19.6094 48.2281 21.75 50.8688 21.75C53.5094 21.75 55.65 19.6094 55.65 16.9688ZM17.7188 45.55C20.3594 45.55 22.5 47.6906 22.5 50.3313C22.5 52.9719 20.3594 55.1125 17.7188 55.1125C15.0781 55.1125 12.9375 52.9719 12.9375 50.3313C12.9375 47.6906 15.0781 45.55 17.7188 45.55ZM34.5062 88.475C31.8656 88.475 29.725 90.6156 29.725 93.2563C29.725 95.8969 31.8656 98.0375 34.5062 98.0375C37.1469 98.0375 39.2875 95.8969 39.2875 93.2563C39.2875 90.6156 37.1469 88.475 34.5062 88.475ZM12.9375 77.3188C12.9375 74.6781 15.0781 72.5375 17.7188 72.5375C20.3594 72.5375 22.5 74.6781 22.5 77.3188C22.5 79.9594 20.3594 82.1 17.7188 82.1C15.0781 82.1 12.9375 79.9594 12.9375 77.3188ZM51.0812 105.688C48.4406 105.688 46.3 107.828 46.3 110.469C46.3 113.109 48.4406 115.25 51.0812 115.25C53.7219 115.25 55.8625 113.109 55.8625 110.469C55.8625 107.828 53.7219 105.688 51.0812 105.688ZM93.5812 98.4625C90.9406 98.4625 88.8 96.3219 88.8 93.6812C88.8 91.0406 90.9406 88.9 93.5812 88.9C96.2218 88.9 98.3625 91.0406 98.3625 93.6812C98.3625 96.3219 96.2218 98.4625 93.5812 98.4625ZM72.8625 110.469C72.8625 113.109 75.0031 115.25 77.6437 115.25C80.2843 115.25 82.425 113.109 82.425 110.469C82.425 107.828 80.2843 105.687 77.6437 105.687C75.0031 105.687 72.8625 107.828 72.8625 110.469ZM110.794 81.8875C108.153 81.8875 106.012 79.7469 106.012 77.1063C106.012 74.4656 108.153 72.325 110.794 72.325C113.434 72.325 115.575 74.4656 115.575 77.1063C115.575 79.7469 113.434 81.8875 110.794 81.8875ZM61.6078 42.2878L42.8252 61.0703C41.4096 62.4859 41.4096 64.7812 42.8252 66.1968L61.6078 84.9793C63.0234 86.395 65.3186 86.395 66.7343 84.9793L85.5168 66.1968C86.9325 64.7812 86.9325 62.4859 85.5168 61.0703L66.7343 42.2878C65.3186 40.8721 63.0234 40.8721 61.6078 42.2878ZM58.4853 64.1421L64.1421 58.4853L69.799 64.1421L64.1421 69.799L58.4853 64.1421ZM50 64.1421L54.2426 59.8995L59.8995 54.2426L64.1421 50L68.3848 54.2426L74.0416 59.8995L78.2843 64.1421L74.0416 68.3848L68.3848 74.0416L64.1421 78.2843L59.8995 74.0416L54.2426 68.3848L50 64.1421Z" fill="#372D62"/>
</g>
</g>
<defs>
<clipPath id="clip0_13_95">
<rect width="128" height="128" rx="30" fill="white"/>
</clipPath>
<clipPath id="clip1_13_95">
<rect width="128" height="128" fill="white"/>
</clipPath>
</defs>
</svg>
